<svg width="64" height="64" viewBox="0 0 64 64" fill="none" xmlns="http://www.w3.org/2000/svg">
<rect width="64" height="64" rx="16" fill="#0A3247"/>
<path d="M21.7226 9.66719C23.3664 10.1639 24.7385 11.2904 25.5301 12.7932C25.9268 13.5301 26.444 14.4808 26.159 15.3118C26.0135 15.7367 25.7276 16.0804 25.2424 15.8583C24.5228 15.5445 24.6531 14.5493 24.3528 13.9858C22.9689 11.3896 20.2002 10.3394 17.3897 11.0968C15.6427 11.5799 14.167 12.7356 13.2959 14.303C12.8443 15.1044 11.9484 17.7628 12.6088 18.4605C14.1474 18.3499 15.7816 18.2661 17.1104 19.1817C17.6889 19.5802 17.2268 20.4811 16.3528 20.3251C15.3559 20.1471 14.3693 19.9004 13.3518 19.9969C10.9358 20.2109 9.08787 22.3295 8.61762 24.541C8.27654 26.2146 8.61054 27.9534 9.54879 29.3888C10.19 30.3554 10.8626 30.9256 11.8619 31.5097C12.0724 31.6327 12.8412 32.1527 12.8643 32.2912C13.115 33.7932 11.609 33.193 11.0661 32.911C10.1698 32.4454 9.80113 32.1777 9.22403 31.54C6.22476 34.3095 6.37679 39.3349 9.28982 42.2162C11.3114 44.2157 14.9782 45.6681 17.673 43.8038C18.3549 43.3321 18.7858 41.5972 19.6847 41.577C20.5541 41.877 20.3418 42.7139 20.0057 43.3337C18.8524 45.4591 16.3561 46.5317 13.971 46.3219C12.7415 46.214 11.8792 45.8028 10.7685 45.3297C10.7362 46.3181 10.7041 47.1495 10.9819 48.1081C11.9358 51.4011 14.4602 53.2745 17.9061 53.3771L18.0225 53.3802C17.8606 52.025 17.7147 50.1929 18.4821 48.9878C18.9089 48.3171 20.0931 48.9319 19.9675 49.4709C19.4502 51.6882 19.1797 53.237 20.8503 55.1281C22.7779 57.3094 26.5727 57.693 28.7439 55.5821C30.0853 54.3196 30.3761 52.9185 30.4438 51.1423C30.4702 50.4678 30.4531 49.2183 30.282 48.5667L30.2673 48.4664C30.1141 47.4772 29.747 46.3487 28.8999 45.6665C28.2347 45.1314 26.6161 44.7991 26.3688 43.914C26.2237 43.3934 26.9964 43.0504 27.4171 43.1446C28.6575 43.2563 29.5527 43.9852 30.3971 44.7991L30.4088 35.88C30.4088 34.5599 30.4702 32.756 30.4072 31.4895C29.6856 32.1198 25.8206 34.9034 25.6468 32.5247C25.6105 32.027 27.7158 31.5008 28.0396 31.2106C30.0573 29.9399 30.6732 27.4372 30.436 25.2182L30.3715 25.1277C29.4527 26.0993 29.4254 26.4858 28.058 27.3141C26.8581 28.041 25.8071 28.1977 24.6453 28.7425C23.1965 29.4218 22.2475 31.0863 22.2998 32.696C22.327 33.9065 22.8624 35.0519 23.7788 35.8594C24.052 36.105 24.7278 36.6329 25.0375 36.7034C25.4535 36.7981 26.1971 36.9169 26.5997 36.9503C27.3688 37.014 28.4104 37.605 27.4091 38.3077C26.5786 38.8905 25.2611 38.506 24.3928 38.1493C23.2479 37.7296 22.5071 36.8073 21.5331 36.2062C19.7484 36.3645 19.0085 35.6784 17.397 35.443C15.051 35.1004 12.956 35.73 13.1222 38.4533C14.0531 39.942 14.6408 39.2737 15.9402 39.9348C16.2059 40.0701 16.0482 40.9758 15.6669 41.0402C12.9599 42.1855 10.6199 39.1209 11.566 36.6568C12.3106 34.7176 14.0303 34.0349 15.833 33.6772C15.3583 32.7979 14.9791 32.0615 14.8621 31.0544C14.7817 30.362 14.7652 28.8876 15.8548 29.084C16.8044 29.7918 16.5519 33.6248 19.3997 34.3122C19.6319 34.3683 20.2729 34.6442 20.602 34.5781C20.7614 34.546 20.6933 34.5693 20.8115 34.4125C20.8153 33.9238 20.6037 33.6452 20.5653 33.1552C20.4106 31.1802 21.0252 29.7138 22.4015 28.3032C23.1993 27.4856 24.7235 26.8981 25.7653 26.5613C29.6285 25.3126 30.4228 21.6455 30.4033 18.0469C30.3956 16.4992 30.6063 11.7502 30.2688 10.4294C30.0542 9.59163 29.6231 8.82263 29.0175 8.19727C28.0546 7.21811 26.5797 6.85483 25.2325 7.05152C23.5415 7.42836 22.8086 7.94822 21.8821 9.40397C21.8271 9.49064 21.7739 9.57838 21.7226 9.66719ZM41.8194 20.3371C43.188 20.7858 44.4688 21.4466 45.1182 22.8025C46.1144 24.8981 45.2846 27.5102 43.0457 28.4206C40.7314 29.3614 38.3308 28.5251 36.0989 29.9393C31.3031 32.9782 32.8312 38.4272 32.5715 43.1346C32.5427 43.6629 32.531 44.4691 32.7138 44.9553L32.8211 45.0158C34.6929 43.4026 36.0997 43.0123 36.312 40.2406C36.4675 38.2109 35.7855 34.9807 37.5158 33.4979C39.5082 31.7897 43.8685 32.2072 45.5132 34.2669C47.2428 36.4325 46.7287 39.7014 44.4891 41.3242C43.4602 42.076 42.2611 42.2417 41.0246 42.2259C41.5021 43.4056 41.6459 44.4071 41.114 45.629C40.9181 46.0784 40.6327 46.4842 40.2749 46.8234C39.3596 47.7023 37.424 48.4557 37.9039 50.2771C38.1317 51.2318 39.603 51.7303 39.3612 52.7708C39.3231 52.9361 39.0182 53.09 38.8612 53.1023C37.2623 53.2225 36.2824 51.3268 36.2109 49.9785C36.1355 48.9281 36.4123 48.1196 37.1138 47.3065C38.0718 46.1956 39.7967 45.8679 39.8706 44.1682C39.9678 42.9297 38.1208 41.6014 37.2001 42.8016C36.7405 43.4003 36.3936 44.1031 35.8384 44.6237C34.7893 45.6068 33.4175 46.214 32.9292 47.6771C32.4781 49.0299 32.3903 50.8506 32.5901 52.2624C32.79 53.7194 33.5754 55.0362 34.7707 55.9175C37.9692 58.2955 42.3909 56.5284 43.4595 52.8282C43.615 51.8819 43.6002 51.1997 43.2907 50.2695C43.1352 49.8009 42.9275 48.9878 43.5349 48.6387C44.1718 48.2727 44.8802 49.5712 44.9728 50.0168C45.3678 51.2211 45.2069 52.2938 44.9176 53.4912C47.4247 53.2347 49.0788 52.8496 50.7749 50.8276C51.9243 49.4579 52.3504 47.7559 52.3178 45.9582C52.3139 45.7508 52.2307 45.6566 52.0899 45.5241C51.8302 45.4751 50.7103 45.9636 50.3371 46.0585C48.9505 46.4115 47.6308 46.3678 46.2629 45.9667C45.5879 45.7691 44.3024 45.1314 45.0443 44.2853C45.4495 44.0702 45.9363 44.1751 46.3469 44.3244C48.3222 45.0808 50.0633 44.7233 51.8901 43.7517C53.8365 42.7165 55.0963 40.9813 55.7255 38.9152C56.5646 36.1585 55.6407 33.7246 53.8948 31.5344C53.3318 32.0472 51.4266 33.2822 51.3247 33.6346C51.3636 34.2768 51.6078 34.86 51.7143 35.4898C51.9943 37.1509 51.8411 39.0664 50.6419 40.3696C50.1885 40.8628 49.3595 41.356 48.739 40.8507C48.3478 39.9944 49.5509 39.4561 49.8013 38.9522C51.1521 36.2334 49.5446 32.5113 46.8913 31.1426C46.672 31.0296 46.0467 30.6596 46.0405 30.4422C46.2567 30.2168 46.5071 29.9847 46.7583 29.7983C48.0375 28.8516 49.1986 27.0728 49.225 25.466C49.2359 24.8033 48.9054 23.3877 49.9863 23.3446C51.4141 23.8059 50.7834 26.5441 50.3985 27.566C50.0027 28.6185 49.4521 29.3982 48.83 30.3207C49.2569 30.7676 49.9513 31.5585 50.3783 31.9505C51.3706 31.4223 51.8691 31.1588 52.6522 30.414C56.8943 26.3998 53.6476 18.6241 47.4877 20.2043C46.6805 20.4115 45.4479 20.6249 45.864 19.3776C46.2544 18.2059 49.8347 18.3439 50.7111 18.4767C50.6442 16.0434 50.1901 14.4789 48.4435 12.6641C46.3391 10.4775 41.9523 10.1144 39.785 12.4551C39.4304 12.8438 39.1279 13.2762 38.8868 13.7415C38.61 14.2838 38.2048 15.9326 37.5228 15.9533C36.9201 15.9717 36.6122 15.3615 36.7428 14.8465C37.232 12.0188 38.8658 10.6888 41.3808 9.69935C40.0953 7.73223 38.8752 6.84288 36.4162 7.0522C35.2038 7.28289 34.2683 7.63431 33.5451 8.71659C32.4509 10.3668 32.3148 12.4704 32.6282 14.3544C32.9509 16.2977 34.5312 17.2159 35.8594 18.4719C36.7242 19.289 37.4551 20.7267 38.7741 20.3617C39.1652 20.2534 39.7189 20.0078 39.9561 19.6098C40.705 17.6236 41.3567 15.6841 43.6749 15.0348C44.1267 14.9083 44.685 14.8257 45.1431 15.0743C45.6587 15.7956 43.8288 16.724 43.356 17.0309C42.1195 17.833 42.0239 19.0144 41.8194 20.3371ZM32.5676 17.8471L32.594 31.0935C33.2877 30.3484 33.7792 29.7732 34.5871 29.1317C35.1712 28.7142 35.7529 28.2928 36.3314 27.8674C36.3516 25.5854 36.868 21.5305 35.0133 19.8857C34.7287 19.6329 32.769 17.945 32.5676 17.8471Z" fill="white"/>
</svg>
